<?xml version="1.0" encoding="UTF-8" standalone="no"?>
<svg
   width="16.006"
   height="16"
   version="1.1"
   id="svg4"
   sodipodi:docname="applications-all.svg"
   inkscape:version="1.3.2 (1:1.3.2+202311252150+091e20ef0f)"
   xmlns:inkscape="http://www.inkscape.org/namespaces/inkscape"
   xmlns:sodipodi="http://sodipodi.sourceforge.net/DTD/sodipodi-0.dtd"
   xmlns="http://www.w3.org/2000/svg"
   xmlns:svg="http://www.w3.org/2000/svg">
  <defs
     id="defs4" />
  <sodipodi:namedview
     id="namedview4"
     pagecolor="#ffffff"
     bordercolor="#666666"
     borderopacity="1.0"
     inkscape:showpageshadow="2"
     inkscape:pageopacity="0.0"
     inkscape:pagecheckerboard="0"
     inkscape:deskcolor="#d1d1d1"
     inkscape:zoom="51.3125"
     inkscape:cx="8"
     inkscape:cy="8"
     inkscape:window-width="1920"
     inkscape:window-height="1016"
     inkscape:window-x="0"
     inkscape:window-y="0"
     inkscape:window-maximized="1"
     inkscape:current-layer="svg4" />
  <g
     fill="#363636"
     id="g4"
     transform="matrix(0.98370889,0,0,0.98370889,0.50837393,0.57323386)"
     style="fill:#303030;fill-opacity:1">
    <path
       d="M 1,0 H 6 C 6.554,0 7,0.446 7,1 V 6 C 7,6.554 6.554,7 6,7 H 1 C 0.446,7 0,6.554 0,6 V 1 C 0,0.446 0.446,0 1,0 Z"
       id="path1"
       style="fill:#303030;fill-opacity:1" />
    <path
       d="M 9,0 C 8.446,0 8,0.446 8,1 v 5 c 0,0.554 0.446,1 1,1 h 5 c 0.554,0 1,-0.446 1,-1 V 1 C 15,0.446 14.554,0 14,0 Z m 0,1 h 5 V 6 H 9 Z"
       id="path2"
       style="fill:#303030;fill-opacity:1" />
    <path
       d="M 9,8 C 8.446,8 8,8.446 8,9 v 5 c 0,0.554 0.446,1 1,1 h 5 c 0.554,0 1,-0.446 1,-1 V 9 C 15,8.446 14.554,8 14,8 Z m 0,1 h 5 v 5 H 9 Z"
       id="path3"
       style="fill:#303030;fill-opacity:1" />
    <path
       d="M 1,8 C 0.446,8 0,8.446 0,9 v 5 c 0,0.554 0.446,1 1,1 h 5 c 0.554,0 1,-0.446 1,-1 V 9 C 7,8.446 6.554,8 6,8 Z m 0,1 h 5 v 5 H 1 Z"
       id="path4"
       style="fill:#303030;fill-opacity:1" />
  </g>
</svg>
