<?xml version="1.0" encoding="UTF-8" standalone="no"?>
<!-- Created with Inkscape (http://www.inkscape.org/) -->

<svg
   width="512mm"
   height="512mm"
   viewBox="0 0 512 512"
   version="1.1"
   id="svg1"
   inkscape:version="1.3.2 (1:1.3.2+202311252150+091e20ef0f)"
   sodipodi:docname="foxy.svg"
   xml:space="preserve"
   xmlns:inkscape="http://www.inkscape.org/namespaces/inkscape"
   xmlns:sodipodi="http://sodipodi.sourceforge.net/DTD/sodipodi-0.dtd"
   xmlns="http://www.w3.org/2000/svg"
   xmlns:svg="http://www.w3.org/2000/svg"><sodipodi:namedview
     id="namedview1"
     pagecolor="#ffffff"
     bordercolor="#666666"
     borderopacity="1.0"
     inkscape:showpageshadow="2"
     inkscape:pageopacity="0.0"
     inkscape:pagecheckerboard="0"
     inkscape:deskcolor="#d1d1d1"
     inkscape:document-units="mm"
     inkscape:zoom="0.25858552"
     inkscape:cx="624.5516"
     inkscape:cy="902.98946"
     inkscape:window-width="1920"
     inkscape:window-height="1016"
     inkscape:window-x="0"
     inkscape:window-y="0"
     inkscape:window-maximized="1"
     inkscape:current-layer="layer1" /><defs
     id="defs1" /><g
     inkscape:label="Layer 1"
     inkscape:groupmode="layer"
     id="layer1"><g
       id="g3"
       style="fill:#303030;fill-opacity:1;stroke:none;stroke-width:1.01261145;stroke-dasharray:none;stroke-opacity:1"
       transform="matrix(0.98754562,0,0,0.98754562,3.1877087,-4.9320862)"><g
         id="g2"
         style="fill:#303030;fill-opacity:1;stroke:none;stroke-width:1.01261145;stroke-dasharray:none;stroke-opacity:1"><path
           d="m 493.352,274.138 c -21.598,-14.215 -36.29,-38.338 -51.847,-63.876 -1.825,-2.997 -3.658,-6.003 -5.51,-9.013 C 465.604,117.619 425.446,50.384 423.672,47.485 L 412.971,29.99 343.551,110.675 C 318.524,99.745 289.559,94.381 256,94.381 c -33.558,0 -62.524,5.365 -87.551,16.294 L 99.028,29.989 88.327,47.484 c -1.772,2.899 -41.932,70.136 -12.323,153.764 -1.852,3.01 -3.685,6.017 -5.51,9.013 -15.556,25.539 -30.25,49.661 -51.847,63.876 L 0,286.412 18.454,298.974 c 1.268,0.864 127.147,86.651 155.859,115.362 9.083,9.084 16.313,18.508 23.307,27.622 15.804,20.598 30.732,40.055 58.38,40.055 27.648,0 42.576,-19.457 58.38,-40.055 6.993,-9.114 14.223,-18.538 23.307,-27.622 28.711,-28.711 154.59,-114.499 155.859,-115.362 l 18.455,-12.562 z M 407.028,82.722 c 6.81,18.818 13.961,49.63 7.011,85.664 -9.669,-12.842 -20.708,-25.077 -34.299,-35.921 -3.081,-2.459 -6.242,-4.794 -9.479,-7.011 z m -307.98,20.434 c 1.732,-7.773 3.854,-14.649 5.942,-20.413 l 36.749,42.713 c -3.237,2.217 -6.397,4.552 -9.478,7.01 -13.61,10.858 -24.661,23.113 -34.34,35.974 -4.161,-21.352 -3.794,-43.208 1.127,-65.284 z m 110.809,306.031 c -4.328,-5.253 -9.07,-10.645 -14.411,-15.986 -22.781,-22.781 -97.111,-75.309 -136.052,-102.33 22.472,-6.78 57.442,-14.753 97.637,-14.753 11.866,0 21.27,3.778 28.75,11.549 23.393,24.305 25.043,80.66 24.076,121.52 z M 256,452.125 c -6.48,0 -11.774,-2.688 -17.411,-7.938 0.096,-3.785 0.263,-8.18 0.448,-13.013 0.044,-1.136 0.088,-2.294 0.132,-3.466 h 33.663 c 0.044,1.172 0.089,2.33 0.132,3.466 0.184,4.833 0.352,9.228 0.448,13.013 -5.638,5.249 -10.932,7.938 -17.412,7.938 z m 16.043,-54.303 h -32.085 c 0.405,-45.309 -3.781,-100.892 -32.643,-130.88 -13.227,-13.743 -30.144,-20.711 -50.283,-20.711 -30.219,0 -57.585,4.068 -79.741,9.033 6.617,-9.587 12.714,-19.578 18.729,-29.454 15.262,-25.056 31.044,-50.964 54.881,-69.982 26.62,-21.237 60.998,-31.561 105.1,-31.561 44.102,0 78.48,10.323 105.1,31.561 23.837,19.018 39.619,44.927 54.881,69.982 6.015,9.875 12.112,19.867 18.729,29.454 -22.156,-4.965 -49.522,-9.033 -79.741,-9.033 -20.138,0 -37.056,6.968 -50.283,20.711 -28.864,29.987 -33.049,85.57 -32.644,130.88 z m 44.511,-4.62 c -5.341,5.341 -10.082,10.733 -14.412,15.986 -0.967,-40.86 0.683,-97.216 24.076,-121.52 7.48,-7.772 16.883,-11.549 28.75,-11.549 40.032,0 75.067,7.99 97.603,14.776 -38.95,27.028 -113.243,79.532 -136.017,102.307 z"
           id="path1"
           style="fill:#303030;fill-opacity:1;stroke:none;stroke-width:1.01261145;stroke-dasharray:none;stroke-opacity:1" /></g></g><g
       id="g5"
       transform="matrix(0.99864083,0,0,0.99864083,0.3474453,-7.766232)"
       style="fill:#303030;fill-opacity:1;stroke:none;stroke-opacity:1;stroke-width:1.00136102;stroke-dasharray:none"><g
         id="g4"
         style="fill:#303030;fill-opacity:1;stroke:none;stroke-opacity:1;stroke-width:1.00136102;stroke-dasharray:none"><path
           d="m 362.024,292.285 c -9.443,0 -17.105,7.753 -17.105,17.319 0,9.565 7.66,17.319 17.105,17.319 9.432,0 17.093,-7.754 17.093,-17.319 0,-9.566 -7.66,-17.319 -17.093,-17.319 z"
           id="path2"
           style="fill:#303030;fill-opacity:1;stroke:none;stroke-opacity:1;stroke-width:1.00136102;stroke-dasharray:none" /></g></g><g
       id="g7"
       transform="matrix(0.99864083,0,0,0.99864083,0.3474453,-7.766232)"
       style="fill:#303030;fill-opacity:1;stroke:none;stroke-opacity:1;stroke-width:1.00136102;stroke-dasharray:none"><g
         id="g6"
         style="fill:#303030;fill-opacity:1;stroke:none;stroke-opacity:1;stroke-width:1.00136102;stroke-dasharray:none"><path
           d="m 149.987,292.285 c -9.443,0 -17.105,7.753 -17.105,17.319 0,9.565 7.66,17.319 17.105,17.319 9.432,0 17.093,-7.754 17.093,-17.319 -0.001,-9.566 -7.661,-17.319 -17.093,-17.319 z"
           id="path4"
           style="fill:#303030;fill-opacity:1;stroke:none;stroke-opacity:1;stroke-width:1.00136102;stroke-dasharray:none" /></g></g></g></svg>
